<svg xmlns="http://www.w3.org/2000/svg" width="39" height="47">
    <path fill="#FFF" fill-rule="evenodd" d="M30.749 1.642c.873 1.011 2.294 2.403 3.228 3.521.457.558.902 1.16 1.301 1.769-2.01.018-3.656 1.697-3.656 3.738 0 2.051 1.664 3.738 3.689 3.738.567 0 1.099-.132 1.581-.368v19.058c0 .99-.884 1.602-1.581 1.602-.677 0-1.581-.618-1.581-1.602v-15.82c0-.741-.527-1.275-1.17-1.267h-3.046V9.086c0-4.952-3.545-9.078-7.906-9.078H7.905C3.545.008 0 4.134 0 9.086v36.846C0 46.491.502 47 1.054 47h27.405c.552 0 1.054-.509 1.055-1.068V18.147h2.108v14.952c0 2.22 1.839 3.738 3.689 3.738 1.857 0 3.689-1.524 3.689-3.738v-22.97c-.168-2.348-1.859-4.442-3.409-6.333A61.73 61.73 0 0 0 32.412.342c-.79-.359-1.041-.282-1.463-.079-.394.371-.381.788-.2 1.379zm-22.844.5h13.703c3.018 0 5.797 3.019 5.797 6.942v35.779H2.108V9.084c0-3.923 2.78-6.942 5.797-6.942zM4.216 6.398v13.884h21.081V6.398H4.216zm2.108 2.136h16.865v9.612H6.324V8.534zm28.987.534c1.054-.007 1.581.527 1.581 1.618-.009.89-.701 1.586-1.581 1.586-.886 0-1.581-.705-1.581-1.602 0-1.075.836-1.58 1.581-1.602zM14.757 25.622c-.527-.007-1.336.952-1.697 1.652-.955 2.531-2.493 5.179-2.52 7.893 0 2.369 1.89 4.339 4.217 4.339 2.326 0 4.216-1.97 4.216-4.339-.364-2.755-1.289-5.403-2.52-7.893-.378-.799-1.169-1.659-1.696-1.652zm0 3.037c.92 2.111 1.781 4.156 2.108 6.508 0 1.236-.942 2.203-2.108 2.203-1.166 0-2.108-.967-2.108-2.203.356-2.259 1.149-4.446 2.108-6.508z"/>
</svg>
